<?xml version="1.0" encoding="utf-8"?>
<!-- Generator: Adobe Illustrator 24.0.1, SVG Export Plug-In . SVG Version: 6.00 Build 0)  -->
<svg version="1.1" id="Layer_1" xmlns="http://www.w3.org/2000/svg" xmlns:xlink="http://www.w3.org/1999/xlink" x="0px" y="0px"
	 viewBox="0 0 762 958" style="enable-background:new 0 0 762 958;" xml:space="preserve">
<style type="text/css">
	.st0{fill:#FFFFFF;}
	.st1{fill:#E50A25;}
</style>
<g>
	<g>
		<path class="st0" d="M43.75,833.78c-4.31-2.46-7.62-6.02-9.91-10.67c-2.3-4.65-3.44-10.25-3.44-16.8v-62.25
			c0-6.61,1.15-12.24,3.44-16.89c2.3-4.65,5.6-8.21,9.91-10.67c4.31-2.46,9.49-3.7,15.54-3.7c6.1,0,11.31,1.22,15.63,3.65
			c4.31,2.44,7.6,6.01,9.87,10.71c2.27,4.7,3.4,10.33,3.4,16.89v7.48H69.54v-7.48c0-2.69-0.39-5.01-1.18-6.97
			c-0.79-1.96-1.95-3.44-3.49-4.45c-1.54-1.01-3.4-1.51-5.59-1.51c-2.13,0-3.95,0.5-5.46,1.51c-1.51,1.01-2.69,2.48-3.53,4.41
			c-0.84,1.93-1.26,4.27-1.26,7.01v62.25c0,2.75,0.42,5.07,1.26,6.97c0.84,1.91,2.02,3.36,3.53,4.37c1.51,1.01,3.33,1.51,5.46,1.51
			c2.24,0,4.12-0.52,5.63-1.55c1.51-1.04,2.66-2.51,3.44-4.41c0.78-1.9,1.18-4.23,1.18-6.97v-7.48h18.65v7.48
			c-0.06,6.55-1.21,12.18-3.44,16.89c-2.24,4.7-5.53,8.27-9.87,10.71c-4.34,2.44-9.54,3.65-15.58,3.65S48.06,836.25,43.75,833.78z"
			/>
		<path class="st0" d="M116.5,833.95c-4.59-2.35-8.11-5.74-10.54-10.17c-2.44-4.42-3.65-9.77-3.65-16.05v-65.19
			c0-6.27,1.22-11.64,3.65-16.09c2.44-4.45,5.95-7.84,10.54-10.17c4.59-2.32,10.14-3.49,16.63-3.49c6.5,0,12.04,1.16,16.63,3.49
			c4.59,2.33,8.11,5.71,10.54,10.17c2.44,4.45,3.65,9.82,3.65,16.09v65.19c0,6.27-1.22,11.62-3.65,16.05
			c-2.44,4.42-5.95,7.81-10.54,10.17c-4.59,2.35-10.14,3.53-16.63,3.53C126.64,837.48,121.09,836.3,116.5,833.95z M139.77,817.82
			c1.85-1.01,3.25-2.45,4.2-4.33c0.95-1.88,1.43-4.13,1.43-6.76v-63.26c0-2.63-0.48-4.89-1.43-6.76c-0.95-1.88-2.35-3.3-4.2-4.29
			c-1.85-0.98-4.06-1.47-6.64-1.47c-2.58,0-4.79,0.49-6.64,1.47c-1.85,0.98-3.25,2.41-4.2,4.29c-0.95,1.88-1.43,4.13-1.43,6.76
			v63.26c0,2.63,0.48,4.89,1.43,6.76c0.95,1.88,2.35,3.32,4.2,4.33c1.85,1.01,4.06,1.51,6.64,1.51
			C135.71,819.33,137.92,818.83,139.77,817.82z"/>
		<path class="st0" d="M179.76,714.06h15.21l31.08,87.62l-2.44,2.69v-90.31h17.14v122.07h-15.37l-30.83-83.76l2.44-2.77v86.53
			h-17.22V714.06z"/>
		<path class="st0" d="M248.15,714.06h60.32v17.56h-60.32V714.06z M269.15,724.15h18.31v112.07h-18.31V724.15z"/>
		<path class="st0" d="M315.86,714.06h18.48v122.15h-18.48V714.06z M324.68,714.06h44.61v17.73h-44.61V714.06z M324.68,766.74h40.41
			v17.64h-40.41V766.74z M324.68,818.49h44.61v17.73h-44.61V818.49z"/>
		<path class="st0" d="M380.89,714.06h15.21l31.08,87.62l-2.44,2.69v-90.31h17.14v122.07H426.5l-30.83-83.76l2.44-2.77v86.53h-17.22
			V714.06z"/>
		<path class="st0" d="M457.67,714.06h18.48v122.15h-18.48V714.06z M469.69,818.66h18.99c2.86,0,5.05-0.85,6.59-2.56
			c1.54-1.71,2.31-4.13,2.31-7.27v-67.38c0-3.14-0.77-5.56-2.31-7.27c-1.54-1.71-3.74-2.56-6.59-2.56h-18.99v-17.56h19.83
			c5.6,0,10.39,1.04,14.37,3.11c3.98,2.07,7.01,5.08,9.12,9.03c2.1,3.95,3.15,8.72,3.15,14.32v69.23c0,5.54-1.06,10.31-3.19,14.28
			c-2.13,3.98-5.18,7-9.16,9.07c-3.98,2.07-8.77,3.11-14.37,3.11h-19.74V818.66z"/>
		<path class="st0" d="M531.94,714.06h18.48v122.15h-18.48V714.06z M540.76,714.06h44.61v17.73h-44.61V714.06z M540.76,766.74h40.41
			v17.64h-40.41V766.74z M540.76,818.49h44.61v17.73h-44.61V818.49z"/>
		<path class="st0" d="M596.96,713.98h18.23v122.24h-18.23V713.98z M605.37,766.99h22.35c2.3,0,4.28-0.42,5.96-1.26
			c1.68-0.84,2.95-2.06,3.82-3.65c0.87-1.6,1.33-3.57,1.39-5.92v-13.02c0-2.41-0.43-4.48-1.3-6.22c-0.87-1.74-2.16-3.07-3.86-3.99
			c-1.71-0.92-3.71-1.39-6.01-1.39h-22.35v-17.56h21c6.55,0,12.15,1.08,16.8,3.23c4.65,2.16,8.2,5.32,10.67,9.49
			c2.46,4.17,3.7,9.17,3.7,15v14.28c0,5.99-1.23,11.13-3.7,15.42c-2.47,4.29-6.04,7.55-10.71,9.79c-4.68,2.24-10.26,3.36-16.76,3.36
			h-21V766.99z M624.35,780.77l17.05-3.86l19.58,59.31h-20L624.35,780.77z"/>
		<path class="st0" d="M687.32,834.03c-4.51-2.3-7.95-5.63-10.33-10c-2.38-4.37-3.54-9.69-3.49-15.96v-6.3l18.31-0.17v6.05
			c0,3.75,1.02,6.67,3.07,8.74c2.04,2.07,4.97,3.11,8.78,3.11c3.64,0,6.46-1.02,8.44-3.07c1.99-2.04,2.98-4.94,2.98-8.7v-10.67
			c0-2.63-0.67-4.87-2.02-6.72c-1.34-1.85-3.07-3.4-5.17-4.66c-2.1-1.26-4.97-2.76-8.61-4.49c-0.17-0.06-0.34-0.13-0.5-0.21
			s-0.34-0.15-0.5-0.21l-1.09-0.5c-4.82-2.35-8.85-4.7-12.1-7.06c-3.25-2.35-5.98-5.54-8.19-9.58c-2.21-4.03-3.32-9.07-3.32-15.12
			v-6.64c0-6.16,1.16-11.43,3.49-15.79c2.32-4.37,5.73-7.67,10.21-9.91c4.48-2.24,9.88-3.36,16.21-3.36c6.22,0,11.51,1.13,15.88,3.4
			c4.37,2.27,7.69,5.6,9.96,10c2.27,4.4,3.43,9.7,3.49,15.92v6.64l-18.4,0.17v-6.3c0-3.87-0.95-6.82-2.86-8.86
			c-1.9-2.04-4.59-3.07-8.07-3.07c-3.75,0-6.61,0.97-8.57,2.9c-1.96,1.93-2.94,4.61-2.94,8.02v7.9c0,2.69,0.66,4.99,1.97,6.89
			c1.32,1.91,2.98,3.46,5,4.66c2.02,1.21,4.79,2.65,8.32,4.33c0.5,0.22,0.99,0.46,1.47,0.71c0.48,0.25,0.97,0.52,1.47,0.8
			c0.17,0.06,0.36,0.13,0.59,0.21c0.22,0.08,0.42,0.18,0.59,0.29c4.76,2.3,8.6,4.48,11.51,6.55c2.91,2.07,5.4,5,7.48,8.78
			c2.07,3.78,3.11,8.64,3.11,14.58v10.67c0,6.27-1.16,11.62-3.49,16.05c-2.32,4.42-5.71,7.77-10.17,10.04
			c-4.45,2.27-9.84,3.4-16.17,3.4C697.27,837.48,691.83,836.33,687.32,834.03z"/>
	</g>
</g>
<path class="st1" d="M463.51,129.52L382.27-0.47l-81.24,129.99l-75.83-27.08l157.07,563.28l157.07-563.28L463.51,129.52z
	 M382.27,393.32l-54.16-194.23l26.15,9.34l28.01-44.82l28.01,44.82l26.15-9.34L382.27,393.32z"/>
<polyline class="st1" points="48.37,389.49 -0.38,411.16 172.35,554.27 232.52,438.24 188.8,569.47 167.52,638.63 340.84,616.97 
	254.18,297.42 151.28,216.18 135.03,275.75 10.46,248.67 42.69,368.41 118.78,357 "/>
<polygon class="st1" points="574.12,569.48 530.4,438.24 590.57,554.27 763.3,411.16 720.46,392.12 720.46,392.12 720.45,392.11 
	714.55,389.49 714.57,389.41 644.14,357 720.23,368.41 752.47,248.67 627.89,275.75 611.65,216.18 508.74,297.42 422.08,616.97 
	595.4,638.63 574.12,569.48 "/>
<g>
	<g>
		<path class="st0" d="M192.82,884.88h6.96v73.31h-6.96V884.88z M197.75,951.43h24.25v6.76h-24.25V951.43z"/>
		<path class="st0" d="M258.92,884.88h6.96v73.31h-6.96V884.88z M263.7,884.88h25.36v6.76H263.7V884.88z M263.7,918.41h22.94v6.76
			H263.7V918.41z M263.7,951.43h25.36v6.76H263.7V951.43z"/>
		<path class="st0" d="M338.83,884.88h8.4l16.23,73.31h-7.73l-12.7-65.19l-12.7,65.19h-7.73L338.83,884.88z M331.63,933.63h23.86
			v6.76h-23.86V933.63z"/>
		<path class="st0" d="M433.42,918.71v21.38c0,3.97-0.66,7.36-1.98,10.18s-3.24,4.98-5.77,6.45c-2.53,1.48-5.56,2.22-9.11,2.22
			c-3.61,0-6.7-0.7-9.27-2.09s-4.53-3.42-5.87-6.08c-1.34-2.66-2-5.85-2-9.58v-38.27c0-3.96,0.66-7.35,1.98-10.16
			c1.32-2.81,3.24-4.95,5.77-6.43c2.53-1.48,5.56-2.22,9.1-2.22c3.48,0,6.46,0.71,8.94,2.14c2.48,1.43,4.37,3.51,5.67,6.25
			c1.3,2.74,1.96,6.03,1.96,9.86v3.53h-7.54v-3.53c0-2.39-0.35-4.42-1.04-6.1c-0.69-1.68-1.71-2.96-3.07-3.83s-2.99-1.31-4.93-1.31
			c-2.09,0-3.88,0.46-5.36,1.39c-1.48,0.92-2.61,2.27-3.38,4.03c-0.77,1.76-1.16,3.89-1.16,6.38v38.27c0,2.25,0.4,4.18,1.21,5.8
			s1.96,2.84,3.48,3.68c1.51,0.84,3.35,1.26,5.51,1.26c2.09,0,3.88-0.45,5.36-1.36s2.61-2.24,3.38-3.98
			c0.77-1.75,1.16-3.85,1.16-6.3v-14.82h-10.14v-6.76H433.42z"/>
		<path class="st0" d="M479.33,957.05c-2.35-1.26-4.11-3.17-5.29-5.72c-1.18-2.55-1.76-5.75-1.76-9.58v-56.87h6.96v57.23
			c0,3.26,0.75,5.7,2.25,7.31c1.5,1.61,3.74,2.42,6.74,2.42c3.03,0,5.3-0.81,6.81-2.42c1.51-1.61,2.27-4.05,2.27-7.31v-57.23h6.96
			v56.87c0,3.83-0.6,7.02-1.79,9.55s-2.97,4.45-5.34,5.72c-2.37,1.28-5.34,1.92-8.91,1.92S481.68,958.31,479.33,957.05z"/>
		<path class="st0" d="M543.11,884.88h6.96v73.31h-6.96V884.88z M547.89,884.88h25.36v6.76h-25.36V884.88z M547.89,918.41h22.94
			v6.76h-22.94V918.41z M547.89,951.43h25.36v6.76h-25.36V951.43z"/>
	</g>
</g>
</svg>
