<?xml version="1.0" encoding="utf-8"?>
<!-- Generator: Adobe Illustrator 25.4.1, SVG Export Plug-In . SVG Version: 6.00 Build 0)  -->
<svg version="1.1" xmlns="http://www.w3.org/2000/svg" xmlns:xlink="http://www.w3.org/1999/xlink" x="0px" y="0px"
	 viewBox="0 0 867.6 691.69" style="enable-background:new 0 0 867.6 691.69;" xml:space="preserve" shape-rendering="geometricPrecision">
<style type="text/css">
	.st0{fill:#FFFFFF;}
	.st1{fill:#E50A25;}
</style>
<g id="Layer_3">
	<polygon class="st0" points="306.16,675 433.8,582.26 561.44,675 433.8,628.63 	"/>
</g>
<g id="Layer_5">
</g>
<g id="Layer_1">
	<polygon class="st1" points="624.69,605.66 618.77,595.77 644.89,576.15 820.16,405.43 690.41,380.71 775.42,377.97 811.35,255.93
		677.96,291.02 658.55,228.23 559.12,338.94 582.99,124.11 517.35,165.88 433.8,16.69 350.25,165.88 284.61,124.11 308.48,338.94
		209.05,228.23 189.64,291.02 56.25,255.93 92.18,377.97 177.19,380.71 47.44,405.43 222.71,576.15 248.83,595.77 242.91,605.66
		242.91,605.66 207.03,667.16 321.65,643.03 358.63,529.22 236.99,440.85 387.34,440.85 433.8,297.85 480.26,440.85 630.61,440.85
		508.98,529.22 545.95,643.03 660.57,667.16 624.69,605.66 	"/>
</g>
</svg>
