<svg width="830" height="180" viewBox="0 0 830 180" fill="none" xmlns="http://www.w3.org/2000/svg">
<mask id="mask0" mask-type="alpha" maskUnits="userSpaceOnUse" x="0" y="0" width="90" height="180">
<path fill-rule="evenodd" clip-rule="evenodd" d="M0.000488281 0H89.3864V179.181H0.000488281V0Z" fill="white"/>
</mask>
<g mask="url(#mask0)">
<path fill-rule="evenodd" clip-rule="evenodd" d="M6.74062 89.5899H33.2173C36.9332 89.5899 39.9441 92.6078 39.9441 96.3322V136.354C39.9441 138.141 40.6525 139.856 41.9132 141.121L77.9018 177.192C82.1404 181.44 89.3864 178.431 89.3864 172.425V6.75458C89.3864 0.748511 82.1404 -2.25887 77.9018 1.98766L1.98462 78.0808C-2.25394 82.329 0.748301 89.5899 6.74062 89.5899" fill="#C42026"/>
</g>
<path fill-rule="evenodd" clip-rule="evenodd" d="M196.593 61.9834H166.916V81.6481H188.623V96.3961H166.916V132.041H149.995V45.6343H196.593V61.9834Z" fill="#010202"/>
<mask id="mask1" mask-type="alpha" maskUnits="userSpaceOnUse" x="0" y="0" width="830" height="180">
<path fill-rule="evenodd" clip-rule="evenodd" d="M0 179.181H829.63V0H0V179.181Z" fill="white"/>
</mask>
<g mask="url(#mask1)">
<path fill-rule="evenodd" clip-rule="evenodd" d="M213.765 132.288H230.688V45.6346H213.765V132.288Z" fill="#010202"/>
<path fill-rule="evenodd" clip-rule="evenodd" d="M268.946 61.8602V93.8155H277.407C284.764 93.8155 291.633 90.6201 291.633 79.191V76.7301C291.633 64.8102 285.011 61.8602 277.407 61.8602H268.946ZM252.024 132.288V45.6346H279.492C296.782 45.6346 308.433 56.8201 308.433 76.9772V79.4364C308.433 92.8321 302.67 101.806 293.351 105.986L307.942 132.288H289.426L277.777 109.917H268.946V132.288H252.024Z" fill="#010202"/>
<path fill-rule="evenodd" clip-rule="evenodd" d="M323.15 69.4803C323.15 53.6237 334.432 44.0377 351.6 44.0377C368.278 44.0377 379.804 55.2214 379.804 73.0446H363.124C363.124 63.8258 358.587 59.5236 351.353 59.5236C344.119 59.5236 340.072 62.9643 340.072 69.4803C340.072 86.6875 380.908 76.4854 380.908 107.459C380.908 123.93 369.134 133.761 351.6 133.761C334.062 133.761 322.044 122.332 322.044 103.773H338.966C338.966 113.851 344.119 118.03 351.6 118.03C358.71 118.03 363.985 114.711 363.985 107.583C363.985 91.1133 323.15 100.209 323.15 69.4803" fill="#010202"/>
<path fill-rule="evenodd" clip-rule="evenodd" d="M444.923 61.9834H426.895V132.288H409.972V61.9834H391.945V45.6343H444.923V61.9834Z" fill="#010202"/>
<path fill-rule="evenodd" clip-rule="evenodd" d="M485.509 116.186C492.009 116.186 498.018 114.588 498.018 106.107V104.755C498.018 97.3811 492.009 95.4145 486.124 95.4145H475.698V116.186H485.509ZM486.124 82.2624C491.64 82.2624 497.159 80.4193 497.159 72.4292V71.077C497.159 63.5794 491.027 61.8599 484.653 61.8599H475.698V82.2624H486.124ZM458.776 45.6343H485.263C502.311 45.6343 513.96 53.2554 513.96 69.2339V70.4643C513.96 79.8032 509.914 85.8267 503.045 88.7767C510.406 91.972 514.818 97.8737 514.818 107.46V108.567C514.818 124.545 503.168 132.288 486.124 132.288H458.776V45.6343Z" fill="#010202"/>
<path fill-rule="evenodd" clip-rule="evenodd" d="M578.222 132.288H532.603V45.6343H549.524V116.062H578.222V132.288Z" fill="#010202"/>
<path fill-rule="evenodd" clip-rule="evenodd" d="M631.44 104.263V73.5368C631.44 63.8272 625.677 60.2612 619.299 60.2612C613.291 60.2612 607.285 63.4565 607.285 73.4132V104.141C607.285 113.851 612.925 117.292 619.299 117.292C625.062 117.292 631.44 114.218 631.44 104.263M590.237 103.649V74.1494C590.237 56.4515 602.131 44.0373 619.299 44.0373C636.347 44.0373 648.365 56.4515 648.365 74.1494V103.649C648.365 121.225 636.347 133.517 619.299 133.517C602.131 133.517 590.237 121.225 590.237 103.649" fill="#010202"/>
<path fill-rule="evenodd" clip-rule="evenodd" d="M705.14 104.263V73.5368C705.14 63.8272 699.377 60.2612 692.999 60.2612C686.99 60.2612 680.98 63.4565 680.98 73.4132V104.141C680.98 113.851 686.625 117.292 692.999 117.292C698.762 117.292 705.14 114.218 705.14 104.263M663.937 103.649V74.1494C663.937 56.4515 675.831 44.0373 692.999 44.0373C710.046 44.0373 722.065 56.4515 722.065 74.1494V103.649C722.065 121.225 710.046 133.517 692.999 133.517C675.831 133.517 663.937 121.225 663.937 103.649" fill="#010202"/>
<path fill-rule="evenodd" clip-rule="evenodd" d="M757.136 61.8602V116.186H766.701C774.795 116.186 780.926 112.991 780.926 96.0292V79.191C780.926 69.8486 778.474 61.8602 766.701 61.8602H757.136ZM740.214 132.288V45.6346H768.664C785.833 45.6346 797.729 56.204 797.729 77.3462V100.208C797.729 121.103 785.833 132.288 768.664 132.288H740.214Z" fill="#010202"/>
<path fill-rule="evenodd" clip-rule="evenodd" d="M817.825 51.7042C819.077 51.7042 819.888 50.8915 819.888 49.534C819.888 48.213 819.077 47.4664 817.825 47.4664H815.797V51.7042H817.825ZM813.395 45.6373H818.297C820.7 45.6373 822.324 47.1618 822.324 49.534C822.324 51.5006 821.039 52.6527 819.99 52.9242V52.9921C819.99 52.9921 820.126 53.1279 820.429 53.7039L822.864 58.4169H820.226L817.86 53.4672H815.797V58.4169H813.395V45.6373ZM817.521 62.1465C822.966 62.1465 827.16 57.7381 827.16 52.0767C827.16 46.4152 822.966 42.0103 817.521 42.0103C812.145 42.0103 807.983 46.4152 807.983 52.0767C807.983 57.7381 812.145 62.1465 817.521 62.1465V62.1465ZM817.521 39.7043C824.251 39.7043 829.629 45.1952 829.629 52.0767C829.629 58.9582 824.251 64.4508 817.521 64.4508C810.858 64.4508 805.514 58.9582 805.514 52.0767C805.514 45.1952 810.858 39.7043 817.521 39.7043V39.7043Z" fill="#010202"/>
</g>
</svg>
