<svg width="830" height="180" viewBox="0 0 830 180" fill="none" xmlns="http://www.w3.org/2000/svg">
<mask id="mask0" mask-type="alpha" maskUnits="userSpaceOnUse" x="0" y="0" width="90" height="180">
<path fill-rule="evenodd" clip-rule="evenodd" d="M0.000488281 0H89.3864V179.181H0.000488281V0Z" fill="white"/>
</mask>
<g mask="url(#mask0)">
<path fill-rule="evenodd" clip-rule="evenodd" d="M6.74062 89.5902H33.2173C36.9332 89.5902 39.9441 92.608 39.9441 96.3324V136.353C39.9441 138.142 40.6525 139.858 41.9132 141.119L77.9018 177.192C82.1404 181.439 89.3864 178.433 89.3864 172.427V6.75482C89.3864 0.748755 82.1404 -2.25863 77.9018 1.98791L1.98462 78.081C-2.25394 82.3275 0.748301 89.5902 6.74062 89.5902" fill="#C42026"/>
</g>
<path fill-rule="evenodd" clip-rule="evenodd" d="M196.593 61.9836H166.916V81.6499H188.623V96.3962H166.916V132.041H149.995V45.6344H196.593V61.9836Z" fill="#FEFEFE"/>
<mask id="mask1" mask-type="alpha" maskUnits="userSpaceOnUse" x="0" y="0" width="830" height="180">
<path fill-rule="evenodd" clip-rule="evenodd" d="M0 179.181H829.63V0H0V179.181Z" fill="white"/>
</mask>
<g mask="url(#mask1)">
<path fill-rule="evenodd" clip-rule="evenodd" d="M213.765 132.287H230.688V45.6346H213.765V132.287Z" fill="#FEFEFE"/>
<path fill-rule="evenodd" clip-rule="evenodd" d="M268.946 61.8595V93.8147H277.407C284.764 93.8147 291.633 90.6193 291.633 79.1902V76.7311C291.633 64.8094 285.011 61.8595 277.407 61.8595H268.946ZM252.024 132.288V45.6356H279.492C296.782 45.6356 308.433 56.8193 308.433 76.9782V79.4374C308.433 92.8331 302.67 101.805 293.351 105.985L307.942 132.288H289.426L277.777 109.917H268.946V132.288H252.024Z" fill="#FEFEFE"/>
<path fill-rule="evenodd" clip-rule="evenodd" d="M323.15 69.4806C323.15 53.6257 334.432 44.038 351.6 44.038C368.278 44.038 379.804 55.2217 379.804 73.045H363.124C363.124 63.8261 358.587 59.5239 351.353 59.5239C344.119 59.5239 340.072 62.9646 340.072 69.4806C340.072 86.6878 380.908 76.4857 380.908 107.459C380.908 123.929 369.134 133.763 351.6 133.763C334.062 133.763 322.044 122.331 322.044 103.771H338.966C338.966 113.852 344.119 118.03 351.6 118.03C358.71 118.03 363.985 114.712 363.985 107.583C363.985 91.1136 323.15 100.207 323.15 69.4806" fill="#FEFEFE"/>
<path fill-rule="evenodd" clip-rule="evenodd" d="M444.923 61.9836H426.895V132.288H409.972V61.9836H391.945V45.6344H444.923V61.9836Z" fill="#FEFEFE"/>
<path fill-rule="evenodd" clip-rule="evenodd" d="M485.509 116.185C492.009 116.185 498.018 114.588 498.018 106.109V104.756C498.018 97.3806 492.009 95.414 486.124 95.414H475.698V116.185H485.509ZM486.124 82.2636C491.64 82.2636 497.159 80.4188 497.159 72.4287V71.0764C497.159 63.5789 491.027 61.8594 484.653 61.8594H475.698V82.2636H486.124ZM458.776 45.6355H485.263C502.311 45.6355 513.96 53.2549 513.96 69.2334V70.4638C513.96 79.8045 509.914 85.8279 503.045 88.7762C510.406 91.9732 514.818 97.8731 514.818 107.459V108.566C514.818 124.545 503.168 132.288 486.124 132.288H458.776V45.6355Z" fill="#FEFEFE"/>
<path fill-rule="evenodd" clip-rule="evenodd" d="M578.222 132.288H532.603V45.6355H549.524V116.064H578.222V132.288Z" fill="#FEFEFE"/>
<path fill-rule="evenodd" clip-rule="evenodd" d="M631.44 104.263V73.5363C631.44 63.8267 625.677 60.2606 619.299 60.2606C613.291 60.2606 607.285 63.4577 607.285 73.4127V104.143C607.285 113.852 612.925 117.291 619.299 117.291C625.062 117.291 631.44 114.219 631.44 104.263M590.237 103.648V74.1506C590.237 56.4509 602.131 44.0367 619.299 44.0367C636.347 44.0367 648.365 56.4509 648.365 74.1506V103.648C648.365 121.225 636.347 133.519 619.299 133.519C602.131 133.519 590.237 121.225 590.237 103.648" fill="#FEFEFE"/>
<path fill-rule="evenodd" clip-rule="evenodd" d="M705.14 104.263V73.5363C705.14 63.8267 699.377 60.2606 692.999 60.2606C686.99 60.2606 680.98 63.4577 680.98 73.4127V104.143C680.98 113.852 686.625 117.291 692.999 117.291C698.762 117.291 705.14 114.219 705.14 104.263M663.937 103.648V74.1506C663.937 56.4509 675.831 44.0367 692.999 44.0367C710.046 44.0367 722.065 56.4509 722.065 74.1506V103.648C722.065 121.225 710.046 133.519 692.999 133.519C675.831 133.519 663.937 121.225 663.937 103.648" fill="#FEFEFE"/>
<path fill-rule="evenodd" clip-rule="evenodd" d="M757.136 61.8595V116.186H766.701C774.795 116.186 780.926 112.992 780.926 96.0285V79.1902C780.926 69.8496 778.474 61.8595 766.701 61.8595H757.136ZM740.214 132.288V45.6356H768.664C785.833 45.6356 797.729 56.205 797.729 77.3454V100.207C797.729 121.102 785.833 132.288 768.664 132.288H740.214Z" fill="#FEFEFE"/>
<path fill-rule="evenodd" clip-rule="evenodd" d="M817.825 51.7046C819.077 51.7046 819.888 50.8901 819.888 49.5343C819.888 48.2134 819.077 47.4667 817.825 47.4667H815.797V51.7046H817.825ZM813.395 45.6376H818.297C820.7 45.6376 822.324 47.1622 822.324 49.5343C822.324 51.5009 821.039 52.6531 819.99 52.9246V52.9925C819.99 52.9925 820.126 53.1282 820.429 53.7043L822.864 58.4155H820.226L817.86 53.4676H815.797V58.4155H813.395V45.6376ZM817.521 62.1451C822.966 62.1451 827.16 57.7385 827.16 52.077C827.16 46.4155 822.966 42.0106 817.521 42.0106C812.145 42.0106 807.983 46.4155 807.983 52.077C807.983 57.7385 812.145 62.1451 817.521 62.1451V62.1451ZM817.521 39.7029C824.251 39.7029 829.629 45.1955 829.629 52.077C829.629 58.9585 824.251 64.4494 817.521 64.4494C810.858 64.4494 805.514 58.9585 805.514 52.077C805.514 45.1955 810.858 39.7029 817.521 39.7029V39.7029Z" fill="#FEFEFE"/>
</g>
</svg>
