<?xml version="1.0" encoding="utf-8"?>
<!-- Generator: Adobe Illustrator 25.4.1, SVG Export Plug-In . SVG Version: 6.00 Build 0)  -->
<svg version="1.1" xmlns="http://www.w3.org/2000/svg" xmlns:xlink="http://www.w3.org/1999/xlink" x="0px" y="0px"
	 viewBox="0 0 867.6 1080" style="enable-background:new 0 0 867.6 1080;" xml:space="preserve">
<style type="text/css">
	.st0{fill:#FFFFFF;}
	.st1{fill:#E50A25;}
</style>
<g id="Layer_3">
	<polygon class="st0" points="306.16,676.57 433.8,583.83 561.44,676.57 433.8,630.2 	"/>
</g>
<g id="Layer_5">
	<g>
		<g>
			<path class="st0" d="M33.71,881.47c-5.1-2.92-9.01-7.12-11.73-12.62c-2.72-5.5-4.08-12.13-4.08-19.88V775.3
				c0-7.82,1.36-14.48,4.08-19.98c2.72-5.5,6.63-9.71,11.73-12.62c5.1-2.92,11.23-4.38,18.39-4.38c7.22,0,13.39,1.44,18.49,4.33
				c5.1,2.88,9,7.11,11.68,12.67c2.68,5.57,4.03,12.23,4.03,19.98v8.85H64.23v-8.85c0-3.18-0.46-5.93-1.39-8.25
				c-0.93-2.32-2.3-4.08-4.13-5.27c-1.82-1.19-4.03-1.79-6.61-1.79c-2.52,0-4.67,0.6-6.46,1.79c-1.79,1.19-3.18,2.93-4.18,5.22
				s-1.49,5.05-1.49,8.3v73.67c0,3.25,0.5,6,1.49,8.25c0.99,2.25,2.39,3.98,4.18,5.17c1.79,1.19,3.94,1.79,6.46,1.79
				c2.65,0,4.87-0.61,6.66-1.84s3.15-2.96,4.08-5.22c0.93-2.25,1.39-5,1.39-8.25v-8.85H86.3v8.85c-0.07,7.75-1.43,14.41-4.08,19.98
				c-2.65,5.57-6.55,9.79-11.68,12.68c-5.14,2.88-11.28,4.32-18.44,4.32C44.95,885.85,38.82,884.39,33.71,881.47z"/>
			<path class="st0" d="M119.81,881.67c-5.44-2.78-9.59-6.79-12.48-12.03c-2.88-5.23-4.32-11.56-4.32-18.99v-77.15
				c0-7.42,1.44-13.77,4.32-19.04c2.88-5.27,7.04-9.28,12.48-12.03c5.43-2.75,12-4.13,19.68-4.13c7.69,0,14.25,1.38,19.68,4.13
				c5.43,2.75,9.59,6.76,12.48,12.03c2.88,5.27,4.32,11.62,4.32,19.04v77.15c0,7.42-1.44,13.75-4.32,18.99
				c-2.88,5.24-7.04,9.25-12.48,12.03c-5.44,2.78-12,4.18-19.68,4.18C131.8,885.85,125.24,884.45,119.81,881.67z M147.35,862.58
				c2.19-1.19,3.84-2.9,4.97-5.12c1.13-2.22,1.69-4.89,1.69-8V774.6c0-3.12-0.56-5.78-1.69-8c-1.13-2.22-2.78-3.91-4.97-5.07
				s-4.81-1.74-7.85-1.74c-3.05,0-5.67,0.58-7.85,1.74s-3.84,2.85-4.97,5.07c-1.13,2.22-1.69,4.89-1.69,8v74.86
				c0,3.12,0.56,5.78,1.69,8c1.13,2.22,2.78,3.93,4.97,5.12s4.8,1.79,7.85,1.79C142.54,864.37,145.16,863.78,147.35,862.58z"/>
			<path class="st0" d="M194.67,739.81h17.99l36.78,103.69l-2.88,3.18V739.81h20.28v144.45h-18.19l-36.49-99.12l2.88-3.28v102.4
				h-20.38V739.81z"/>
			<path class="st0" d="M275.59,739.81h71.38v20.78h-71.38V739.81z M300.45,751.73h21.67v132.62h-21.67V751.73z"/>
			<path class="st0" d="M355.72,739.81h21.87v144.55h-21.87V739.81z M366.16,739.81h52.79v20.98h-52.79V739.81z M366.16,802.14
				h47.82v20.88h-47.82V802.14z M366.16,863.38h52.79v20.98h-52.79V863.38z"/>
			<path class="st0" d="M432.67,739.81h17.99l36.78,103.69l-2.88,3.18V739.81h20.28v144.45h-18.19l-36.49-99.12l2.88-3.28v102.4
				h-20.38V739.81z"/>
			<path class="st0" d="M523.53,739.81h21.87v144.55h-21.87V739.81z M537.75,863.58h22.47c3.38,0,5.98-1.01,7.8-3.03
				c1.82-2.02,2.73-4.89,2.73-8.6v-79.73c0-3.71-0.91-6.58-2.73-8.6c-1.82-2.02-4.42-3.03-7.8-3.03h-22.47v-20.78h23.46
				c6.63,0,12.29,1.23,17,3.68c4.71,2.45,8.3,6.02,10.79,10.69s3.73,10.32,3.73,16.95v81.92c0,6.56-1.26,12.2-3.78,16.9
				c-2.52,4.71-6.13,8.29-10.84,10.74c-4.71,2.45-10.37,3.68-17,3.68h-23.36V863.58z"/>
			<path class="st0" d="M611.42,739.81h21.87v144.55h-21.87V739.81z M621.85,739.81h52.79v20.98h-52.79V739.81z M621.85,802.14
				h47.82v20.88h-47.82V802.14z M621.85,863.38h52.79v20.98h-52.79V863.38z"/>
			<path class="st0" d="M688.36,739.71h21.57v144.65h-21.57V739.71z M698.3,802.44h26.44c2.72,0,5.07-0.5,7.06-1.49
				s3.5-2.44,4.52-4.32c1.03-1.89,1.57-4.23,1.64-7.01V774.2c0-2.85-0.51-5.3-1.54-7.36c-1.03-2.05-2.55-3.63-4.57-4.72
				c-2.02-1.09-4.39-1.64-7.11-1.64H698.3v-20.78h24.85c7.75,0,14.38,1.28,19.88,3.83c5.5,2.55,9.71,6.3,12.62,11.23
				c2.92,4.94,4.38,10.85,4.38,17.75v16.9c0,7.09-1.46,13.17-4.38,18.24c-2.92,5.07-7.14,8.93-12.67,11.58
				c-5.54,2.65-12.15,3.98-19.83,3.98H698.3V802.44z M720.77,818.74l20.18-4.57l23.16,70.19h-23.66L720.77,818.74z"/>
			<path class="st0" d="M795.28,881.77c-5.34-2.72-9.41-6.66-12.23-11.83c-2.82-5.17-4.19-11.47-4.13-18.89v-7.46l21.67-0.2v7.16
				c0,4.44,1.21,7.89,3.63,10.34c2.42,2.45,5.88,3.68,10.39,3.68c4.31,0,7.64-1.21,9.99-3.63c2.35-2.42,3.53-5.85,3.53-10.29v-12.62
				c0-3.12-0.79-5.77-2.39-7.95c-1.59-2.19-3.63-4.03-6.11-5.52c-2.49-1.49-5.88-3.26-10.19-5.32c-0.2-0.06-0.4-0.15-0.6-0.25
				s-0.4-0.18-0.6-0.25l-1.29-0.6c-5.7-2.79-10.47-5.57-14.32-8.35s-7.08-6.56-9.69-11.33c-2.62-4.77-3.93-10.74-3.93-17.89v-7.85
				c0-7.29,1.37-13.52,4.12-18.69c2.75-5.17,6.78-9.08,12.08-11.73c5.3-2.65,11.7-3.98,19.19-3.98c7.36,0,13.62,1.34,18.79,4.03
				c5.17,2.68,9.1,6.63,11.78,11.83c2.68,5.2,4.06,11.48,4.12,18.84v7.85l-21.77,0.2v-7.46c0-4.57-1.13-8.07-3.38-10.49
				c-2.25-2.42-5.44-3.63-9.54-3.63c-4.44,0-7.82,1.14-10.14,3.43c-2.32,2.29-3.48,5.45-3.48,9.49v9.35c0,3.18,0.78,5.9,2.34,8.15
				c1.56,2.25,3.53,4.09,5.92,5.52c2.39,1.43,5.67,3.13,9.84,5.12c0.6,0.27,1.18,0.55,1.74,0.85c0.56,0.3,1.14,0.61,1.74,0.94
				c0.2,0.07,0.43,0.15,0.7,0.25c0.26,0.1,0.5,0.21,0.7,0.35c5.63,2.72,10.17,5.3,13.62,7.75c3.45,2.45,6.4,5.92,8.85,10.39
				c2.45,4.47,3.68,10.22,3.68,17.25v12.63c0,7.42-1.38,13.75-4.13,18.99c-2.75,5.24-6.76,9.2-12.03,11.88
				c-5.27,2.69-11.65,4.03-19.14,4.03C807.06,885.85,800.62,884.49,795.28,881.77z"/>
		</g>
	</g>
	<g>
		<g>
			<path class="st0" d="M210.12,941.94h8.23v86.75h-8.23V941.94z M215.95,1020.69h28.69v8h-28.69V1020.69z"/>
			<path class="st0" d="M288.33,941.94h8.23v86.75h-8.23V941.94z M293.99,941.94H324v7.99h-30.01V941.94z M293.99,981.61h27.15v7.99
				h-27.15V981.61z M293.99,1020.69H324v8h-30.01V1020.69z"/>
			<path class="st0" d="M382.9,941.94h9.95l19.21,86.75h-9.15l-15.03-77.14l-15.03,77.14h-9.15L382.9,941.94z M374.38,999.63h28.24
				v7.99h-28.24V999.63z"/>
			<path class="st0" d="M494.84,981.97v25.3c0,4.69-0.78,8.71-2.34,12.05c-1.56,3.34-3.84,5.89-6.83,7.64
				c-2.99,1.75-6.58,2.62-10.77,2.62c-4.27,0-7.93-0.83-10.97-2.48c-3.05-1.65-5.36-4.05-6.95-7.19c-1.58-3.14-2.37-6.92-2.37-11.34
				V963.3c0-4.69,0.78-8.7,2.34-12.02c1.56-3.32,3.84-5.86,6.83-7.61c2.99-1.75,6.58-2.62,10.77-2.62c4.12,0,7.64,0.85,10.58,2.54
				c2.93,1.69,5.17,4.16,6.72,7.4s2.31,7.13,2.31,11.66v4.18h-8.92v-4.18c0-2.82-0.41-5.23-1.23-7.22c-0.82-1.99-2.03-3.5-3.63-4.53
				c-1.6-1.04-3.54-1.55-5.83-1.55c-2.48,0-4.59,0.55-6.34,1.64c-1.75,1.09-3.09,2.68-4,4.77c-0.91,2.09-1.37,4.61-1.37,7.55v45.28
				c0,2.67,0.48,4.95,1.43,6.86c0.95,1.91,2.32,3.36,4.12,4.36s3.96,1.49,6.52,1.49c2.48,0,4.59-0.54,6.34-1.61s3.09-2.64,4-4.71
				c0.91-2.07,1.37-4.55,1.37-7.46v-17.54h-12v-7.99H494.84z"/>
			<path class="st0" d="M549.16,1027.34c-2.78-1.49-4.87-3.75-6.26-6.77c-1.39-3.02-2.09-6.8-2.09-11.34v-67.3h8.23v67.72
				c0,3.86,0.89,6.74,2.66,8.65c1.77,1.91,4.43,2.87,7.97,2.87c3.58,0,6.27-0.96,8.06-2.87c1.79-1.91,2.69-4.79,2.69-8.65v-67.72
				h8.23v67.3c0,4.54-0.71,8.3-2.12,11.31c-1.41,3-3.52,5.26-6.32,6.77s-6.32,2.27-10.54,2.27
				C555.45,1029.58,551.94,1028.83,549.16,1027.34z"/>
			<path class="st0" d="M624.63,941.94h8.23v86.75h-8.23V941.94z M630.29,941.94h30.01v7.99h-30.01V941.94z M630.29,981.61h27.15
				v7.99h-27.15V981.61z M630.29,1020.69h30.01v8h-30.01V1020.69z"/>
		</g>
	</g>
</g>
<g id="Layer_1">
	<polygon class="st0" points="624.69,607.23 618.77,597.34 644.89,577.72 820.16,407 690.41,382.29 775.42,379.54 811.35,257.5 
		677.96,292.59 658.55,229.8 559.12,340.51 582.99,125.68 517.35,167.45 433.8,18.26 350.25,167.45 284.61,125.68 308.48,340.51 
		209.05,229.8 189.64,292.59 56.25,257.5 92.18,379.54 177.19,382.29 47.44,407 222.71,577.72 248.83,597.34 242.91,607.23 
		242.91,607.23 207.03,668.73 321.65,644.6 358.63,530.79 236.99,442.42 387.34,442.42 433.8,299.43 480.26,442.42 630.61,442.42 
		508.98,530.79 545.95,644.6 660.57,668.73 624.69,607.23 	"/>
</g>
</svg>
