<?xml version="1.0" encoding="utf-8"?>
<!-- Generator: Adobe Illustrator 24.0.1, SVG Export Plug-In . SVG Version: 6.00 Build 0)  -->
<svg version="1.1" id="Layer_1" xmlns="http://www.w3.org/2000/svg" xmlns:xlink="http://www.w3.org/1999/xlink" x="0px"
     y="0px"
     viewBox="0 0 903 788" style="enable-background:new 0 0 10 788;" xml:space="preserve">
	<style>

		@media (prefers-color-scheme: light){
			path,
			polyline,
			polygon {
				fill: black;
				stroke: black;
			}
		}
		
		@media (prefers-color-scheme: dark){
			path,
			polyline,
			polygon {
				fill: white;
				stroke: white;
			}
		}
	</style>
    <path d="M548.4,154.17L452.34,0.46l-96.06,153.7l-89.66-32.02l185.72,666.04l185.72-666.04L548.4,154.17z M452.34,466.1
	l-64.04-229.67l30.92,11.04l33.13-53l33.13,53l30.92-11.04L452.34,466.1z"/>
    <polyline points="57.51,461.57 -0.12,487.19 204.12,656.41 275.26,519.21 223.57,674.39 198.41,756.17 403.34,730.55 300.88,352.7
	179.2,256.63 159.98,327.08 12.69,295.06 50.8,436.64 140.77,423.14 "/>
    <polygon points="679.18,674.39 627.49,519.21 698.64,656.41 902.88,487.19 852.22,464.67 852.22,464.67 852.21,464.67
	845.24,461.57 845.26,461.47 761.98,423.14 851.95,436.64 890.07,295.06 742.77,327.08 723.56,256.63 601.88,352.7 499.41,730.55 
	704.34,756.17 679.18,674.39 "/>
</svg>
