<svg width="52" height="18" viewBox="0 0 52 18" fill="none" xmlns="http://www.w3.org/2000/svg">
<path d="M4.52 17.192C3.16 17.192 2.064 16.784 1.232 15.968C0.416 15.136 0.00800008 14.04 0.00800008 12.68V4.496C0.00800008 3.12 0.416 2.032 1.232 1.232C2.064 0.416 3.16 0.0079999 4.52 0.0079999C5.896 0.0079999 7 0.416 7.832 1.232C8.664 2.032 9.08 3.12 9.08 4.496V4.784C9.08 4.864 9.048 4.936 8.984 5C8.936 5.064 8.872 5.096 8.792 5.096L6.56 5.192C6.368 5.192 6.272 5.096 6.272 4.904V4.304C6.272 3.744 6.112 3.288 5.792 2.936C5.472 2.584 5.048 2.408 4.52 2.408C4.008 2.408 3.592 2.584 3.272 2.936C2.952 3.288 2.792 3.744 2.792 4.304V12.896C2.792 13.456 2.952 13.912 3.272 14.264C3.592 14.616 4.008 14.792 4.52 14.792C5.048 14.792 5.472 14.616 5.792 14.264C6.112 13.912 6.272 13.456 6.272 12.896V12.296C6.272 12.216 6.296 12.152 6.344 12.104C6.408 12.04 6.48 12.008 6.56 12.008L8.792 12.104C8.872 12.104 8.936 12.136 8.984 12.2C9.048 12.248 9.08 12.312 9.08 12.392V12.68C9.08 14.04 8.664 15.136 7.832 15.968C7 16.784 5.896 17.192 4.52 17.192ZM15.4888 17.192C14.1288 17.192 13.0328 16.784 12.2008 15.968C11.3848 15.136 10.9768 14.04 10.9768 12.68V4.496C10.9768 3.12 11.3848 2.032 12.2008 1.232C13.0328 0.416 14.1288 0.0079999 15.4888 0.0079999C16.8648 0.0079999 17.9688 0.416 18.8008 1.232C19.6328 2.032 20.0488 3.12 20.0488 4.496V4.784C20.0488 4.864 20.0168 4.936 19.9528 5C19.9048 5.064 19.8408 5.096 19.7608 5.096L17.5288 5.192C17.3368 5.192 17.2408 5.096 17.2408 4.904V4.304C17.2408 3.744 17.0808 3.288 16.7608 2.936C16.4408 2.584 16.0168 2.408 15.4888 2.408C14.9768 2.408 14.5608 2.584 14.2408 2.936C13.9208 3.288 13.7608 3.744 13.7608 4.304V12.896C13.7608 13.456 13.9208 13.912 14.2408 14.264C14.5608 14.616 14.9768 14.792 15.4888 14.792C16.0168 14.792 16.4408 14.616 16.7608 14.264C17.0808 13.912 17.2408 13.456 17.2408 12.896V12.296C17.2408 12.216 17.2648 12.152 17.3128 12.104C17.3768 12.04 17.4488 12.008 17.5288 12.008L19.7608 12.104C19.8408 12.104 19.9048 12.136 19.9528 12.2C20.0168 12.248 20.0488 12.312 20.0488 12.392V12.68C20.0488 14.04 19.6328 15.136 18.8008 15.968C17.9688 16.784 16.8648 17.192 15.4888 17.192ZM22.5215 17C22.4415 17 22.3695 16.976 22.3055 16.928C22.2575 16.864 22.2335 16.792 22.2335 16.712V0.487999C22.2335 0.408 22.2575 0.343999 22.3055 0.295999C22.3695 0.231999 22.4415 0.199999 22.5215 0.199999H24.7295C24.8095 0.199999 24.8735 0.231999 24.9215 0.295999C24.9855 0.343999 25.0175 0.408 25.0175 0.487999V14.48C25.0175 14.56 25.0575 14.6 25.1375 14.6H30.3215C30.4015 14.6 30.4655 14.632 30.5135 14.696C30.5775 14.744 30.6095 14.808 30.6095 14.888V16.712C30.6095 16.792 30.5775 16.864 30.5135 16.928C30.4655 16.976 30.4015 17 30.3215 17H22.5215ZM38.8424 17C38.6824 17 38.5784 16.92 38.5304 16.76L36.4904 9.872C36.4584 9.808 36.4184 9.776 36.3704 9.776H35.0984C35.0184 9.776 34.9784 9.816 34.9784 9.896V16.712C34.9784 16.792 34.9464 16.864 34.8824 16.928C34.8344 16.976 34.7704 17 34.6904 17H32.4824C32.4024 17 32.3304 16.976 32.2664 16.928C32.2184 16.864 32.1944 16.792 32.1944 16.712V0.487999C32.1944 0.408 32.2184 0.343999 32.2664 0.295999C32.3304 0.231999 32.4024 0.199999 32.4824 0.199999H36.9944C37.8424 0.199999 38.5864 0.407999 39.2264 0.823999C39.8824 1.224 40.3864 1.8 40.7384 2.552C41.1064 3.288 41.2904 4.136 41.2904 5.096C41.2904 6.088 41.0984 6.944 40.7144 7.664C40.3304 8.384 39.7944 8.928 39.1064 9.296C39.0424 9.312 39.0184 9.36 39.0344 9.44L41.3864 16.664C41.4024 16.696 41.4104 16.736 41.4104 16.784C41.4104 16.928 41.3224 17 41.1464 17H38.8424ZM35.0984 2.6C35.0184 2.6 34.9784 2.64 34.9784 2.72V7.496C34.9784 7.576 35.0184 7.616 35.0984 7.616H36.5624C37.1384 7.616 37.6024 7.392 37.9544 6.944C38.3224 6.496 38.5064 5.888 38.5064 5.12C38.5064 4.352 38.3224 3.744 37.9544 3.296C37.6024 2.832 37.1384 2.6 36.5624 2.6H35.0984ZM51.4649 10.136C51.5449 10.664 51.5849 11.224 51.5849 11.816C51.5849 12.184 51.5689 12.704 51.5369 13.376C51.4569 14.592 51.0329 15.536 50.2649 16.208C49.5129 16.864 48.5129 17.192 47.2649 17.192C46.0809 17.192 45.1209 16.888 44.3849 16.28C43.6489 15.656 43.2089 14.744 43.0649 13.544C42.9689 13.112 42.9209 12.608 42.9209 12.032L42.8969 4.232C42.8969 2.936 43.2889 1.912 44.0729 1.16C44.8729 0.392 45.9209 0.0079999 47.2169 0.0079999C48.4329 0.0079999 49.4249 0.392 50.1929 1.16C50.9609 1.928 51.3449 2.952 51.3449 4.232V4.832C51.3449 4.912 51.3129 4.984 51.2489 5.048C51.2009 5.096 51.1369 5.12 51.0569 5.12H48.8489C48.7689 5.12 48.6969 5.096 48.6329 5.048C48.5849 4.984 48.5609 4.912 48.5609 4.832V4.376C48.5609 3.832 48.4249 3.384 48.1529 3.032C47.8969 2.664 47.5849 2.48 47.2169 2.48C46.7689 2.48 46.4009 2.656 46.1129 3.008C45.8409 3.36 45.7049 3.816 45.7049 4.376V6.848C45.7049 6.896 45.7209 6.928 45.7529 6.944C45.7849 6.96 45.8169 6.952 45.8489 6.92C46.3129 6.488 46.8889 6.272 47.5769 6.272C48.6809 6.272 49.5769 6.624 50.2649 7.328C50.9529 8.032 51.3529 8.968 51.4649 10.136ZM48.7049 13.16C48.7529 12.584 48.7769 12.072 48.7769 11.624C48.7769 11.208 48.7369 10.64 48.6569 9.92C48.4649 8.992 47.9929 8.528 47.2409 8.528C46.8569 8.528 46.5369 8.656 46.2809 8.912C46.0409 9.152 45.8809 9.512 45.8009 9.992C45.7369 10.552 45.7049 11.096 45.7049 11.624C45.7049 12.088 45.7289 12.624 45.7769 13.232C45.8569 13.744 46.0169 14.136 46.2569 14.408C46.5129 14.68 46.8409 14.816 47.2409 14.816C47.6409 14.816 47.9609 14.672 48.2009 14.384C48.4569 14.096 48.6249 13.688 48.7049 13.16Z" fill="white"/>
</svg>
