<?xml version="1.0" encoding="utf-8"?>
<!-- Generator: Adobe Illustrator 24.0.1, SVG Export Plug-In . SVG Version: 6.00 Build 0)  -->
<svg version="1.1" id="Layer_1" xmlns="http://www.w3.org/2000/svg" xmlns:xlink="http://www.w3.org/1999/xlink" x="0px" y="0px"
	 viewBox="0 0 332 463" style="enable-background:new 0 0 332 463;" xml:space="preserve">
<style type="text/css">
	.st0{fill:#e01d3f;}
</style>
<g>
	<path class="st0" d="M143.03,434.78l-14.16-232.03l-7.91-129.61l-0.38-6.24l-2.78,4.83L53.32,183.76
		c5.93,33-0.72,57.28-36.82,57.28h-0.01H0.33l26.17,91.3h34.34l51.05,0l13.28,117.43l19.58,13.16l-0.64-10.41L143.03,434.78z
		 M43.94,308.42l-9.35-38.46c1.45-0.12,2.89-0.29,4.32-0.52c1.43-0.23,2.85-0.52,4.26-0.86c4.22-1.03,8.3-2.57,12.13-4.63
		c1.91-1.03,3.76-2.18,5.52-3.46c8.23-5.99,14.68-14.76,17.69-26.37c0.54-2.07,0.96-4.23,1.27-6.49c0.08-0.56,0.15-1.13,0.21-1.71
		c0.12-1.15,0.22-2.32,0.28-3.51c0.03-0.6,0.05-1.2,0.07-1.81l7.74-15.27l7.73-15.27h0l13.38,118.36H43.94z"/>
	<path class="st0" d="M271.09,332.34h34.34l26.17-91.3h-16.15h-0.01c-36.1,0-42.75-24.28-36.82-57.28L213.7,70.98l-2.35-4.08
		l-0.38,6.27l-7.91,129.58l-5.88,96.32l-4.05,66.29l-3.48,57.05l-1.84,30.2l-0.63,10.35l47.22-33.18
		c2.39-13.3,12.3-24.78,38.01-24.78h0.01h11.5l18.94-63.82h-33.71h-50.11l1-8.84L271.09,332.34z M227.24,268.64l6.04-53.46
		l2.84-25.12l15.47,30.55c0.77,31.14,22.61,47.47,45.74,49.35l-9.35,38.46h-65.24L227.24,268.64z M274.93,362.15l-6.51,26.78
		c-18.56,1.14-38.88,10.45-45.01,25.82l-14.13,12.66l7.38-65.26H274.93z"/>
	<polygon class="st0" points="185.77,53.8 174,455.2 173.89,458.83 173.68,463 158.83,463 158.55,456.95 146.17,54.04 165.84,0.13 	
		"/>
	<path class="st0" d="M165.97-37.88"/>
</g>
</svg>
