<?xml version="1.0" encoding="utf-8"?>
<!-- Generator: Adobe Illustrator 24.0.1, SVG Export Plug-In . SVG Version: 6.00 Build 0)  -->
<svg version="1.1" id="Layer_1" xmlns="http://www.w3.org/2000/svg" xmlns:xlink="http://www.w3.org/1999/xlink" x="0px" y="0px"
	 viewBox="0 0 1920 1080" style="enable-background:new 0 0 1920 1080;" xml:space="preserve">
<style type="text/css">
	.st0{fill:#FFFFFF;}
</style>
<path class="st0" d="M1057.4,300.17l-96.06-153.7l-96.06,153.7l-89.66-32.02l185.72,666.04l185.72-666.04L1057.4,300.17z
	 M961.34,612.1l-64.04-229.67l30.92,11.04l33.13-53l33.13,53l30.92-11.04L961.34,612.1z"/>
<polyline class="st0" points="566.51,607.57 508.88,633.19 713.12,802.41 784.26,665.21 732.57,820.39 707.41,902.17 912.34,876.55 
	809.88,498.7 688.2,402.63 668.98,473.08 521.69,441.06 559.8,582.64 649.77,569.14 "/>
<polygon class="st0" points="1188.18,820.39 1136.49,665.21 1207.64,802.41 1411.88,633.19 1361.22,610.67 1361.22,610.67 
	1361.21,610.67 1354.24,607.57 1354.26,607.47 1270.98,569.14 1360.95,582.64 1399.07,441.06 1251.77,473.08 1232.56,402.63 
	1110.88,498.7 1008.41,876.55 1213.34,902.17 1188.18,820.39 "/>
</svg>
