<svg version="1" xmlns="http://www.w3.org/2000/svg" width="682.667" height="482.667" viewBox="0 0 512 362" preserveAspectRatio="xMidYMid meet"><g fill="#000" stroke="none"><path d="M363 1.6c-6.9.8-24.8 2.8-39.9 4.4-31.9 3.5-50.3 6.3-55.3 8.4-1.9.8-4.9 3.1-6.7 5.1-2.6 3-3.1 4.4-3.1 8.8 0 5.8 2.9 12.6 12.6 29.8 7.3 12.8 9.5 19.3 9.5 28.2.1 22.6-15.4 40.5-38.2 44-14.3 2.2-29.4-3.1-40.7-14.3-12.8-12.8-15.8-25.8-11.2-49.7 1.3-6.5 2.3-15.4 2.4-19.8.1-10.2-1.7-13.8-8.2-16.7-8.9-4-14.7-2.8-61.2 12.7-24 8-42 14.5-43.1 15.6-1.1 1.1-1.9 3.3-1.9 5.1 0 1.8 4.9 18.1 11 36.3 11.8 35.6 12.7 40.1 8.9 44.9-1.8 2.3-2.8 2.6-7.9 2.6-3.2 0-12.2-.7-20.1-1.5-26.4-2.9-34.6-1.8-46.1 5.9-9.8 6.5-16.6 15.7-21 28.5-3.3 9.5-3.2 25.6.1 35.9C7.6 230.1 17.6 242 31 248.9c19.6 10.2 34.5 9.5 60.8-2.8 14.9-7 21.5-9 24-7.5.9.6 2.6 2.8 3.7 5 1.8 3.7 2 7 2.7 56.9.4 30.1 1.2 54 1.7 55.2.6 1.2 2.1 2.9 3.5 3.8 2.3 1.6 4.2 1.5 28.3-1 33.2-3.4 72.9-8.2 80.9-9.9 14.2-3 19.8-10.6 16.4-22.6-.5-1.9-4.6-10-8.9-17.8-12-21.5-14.3-29.3-12.2-40.8 2.6-14.2 12-26.6 24.6-32.6 17.8-8.3 37.2-5.1 52 8.4 14.6 13.3 18.2 26.8 13.5 50.3-1.1 5.5-2.3 14-2.6 19-.7 11 .9 14.7 7.7 18.3 3.8 2.1 5.4 2.3 12.5 1.9 7-.4 13.3-2.2 49.2-14.1 43.2-14.4 45.2-15.3 45.2-20.9 0-1.2-4.9-17-11-35.2-12.1-36.5-13.2-42.3-8.9-46.6 2.1-2.1 2.8-2.2 13.3-1.5 6.1.4 16.7 1.3 23.6 1.9 15.4 1.5 22.3.7 31.6-3.7 16.6-7.8 27.8-25.5 29.1-45.6 1.7-28.2-15-51.8-42.6-60-6.1-1.9-8.9-2.2-17-1.8-11.3.6-17.2 2.4-35.4 11-14.9 6.9-19.8 7.7-22.8 3.8-3-4-3.9-11.9-3.9-34.4 0-11.6-.3-34.4-.7-50.6l-.6-29.5-2.8-2.7c-3.2-3.2-4-3.3-22.9-1.2zM184 34.2c1.9 1.3 3.8 3.6 4.2 5.3 1.1 3.6.2 14.1-1.9 24.5-.8 4.1-1.8 11.5-2.1 16.5l-.7 9-6.6-15c-7.8-17.6-16.2-39.5-15.5-40.2 1-1.1 7.3-2.1 13.2-2.2 4.8-.1 6.8.4 9.4 2.1zm-59.5 21c5.3 9.5 20.2 31.9 29.4 44l7.3 9.8 5.7-4.4c8-6.2 16.8-11.6 17.5-10.9.3.4.6 1.5.6 2.6s1.6 5.2 3.5 9.2c6.7 14 23.5 26.3 39.3 28.7 18.9 3 39.2-6 48.9-21.5l2.8-4.6 21.5 11.4 21.5 11.5.7 9.6c.4 5.3 1.3 11.5 2.1 13.8.8 2.3 15.2 24.9 32.1 50.3 16.8 25.4 30.6 46.6 30.6 47.3 0 1.5-21.3 32.9-22.3 33-1.5 0-36.2-15.1-37.3-16.3-.6-.7-1.8-3.8-2.8-7-3.5-11.5-14.9-24.2-27.2-30.3-2.8-1.3-8.6-3.2-12.9-4.1-10-2-20.9-.7-30.2 3.7l-6.4 2.9-3.5-5.6c-5-7.7-8.2-15.3-11-25.8l-2.4-9 .5 16c.3 10.7 1.1 19.2 2.5 25.8l2.1 9.8-2.6 4.3c-4.6 7.9-6.7 15.4-6.7 24.6-.1 10.9 2.2 17.8 10.9 33 9 15.7 11.3 20.8 11.3 25.5 0 7.6-3.8 10.5-17.1 12.9-18.6 3.4-98.7 12.1-102.5 11.2-1.2-.3-2.4-1.2-2.7-2-.3-.8-.8-24-1.2-51.7-.4-27.7-1.1-52.7-1.6-55.6-1.2-6.3-4.5-11.4-8.2-12.7-3.5-1.3-9.7.3-19.6 5-4.1 1.9-7.6 3.2-7.9 3-.2-.3.1-4.2.8-8.6.7-4.4 1-8.3.8-8.6-.3-.2-5.9.2-12.4 1-14.7 1.9-40.5 3.6-54.1 3.6H14.1l-2.5-4.2C5.5 215.3 2.8 200 5 188.6c.7-3.6 1.4-6.6 1.6-6.6.2 0 5.7 1.3 12.2 3 22.3 5.6 54.9 10.7 72 11.2l8.3.3 3.3-8c1.8-4.4 4.3-9.9 5.5-12.3 1.2-2.3 1.9-4.2 1.7-4.2-2.5 0-31.2-9.8-46.5-15.8l-19.4-7.7 5.3-.3c3-.2 12.1.4 20.4 1.2 8.3.9 18 1.6 21.5 1.6 5.8 0 6.5-.2 9.7-3.4 2.1-2.1 3.4-4.4 3.4-6 0-1.4.5-2.6 1.1-2.6.6 0 4.8 2 9.3 4.5 4.6 2.5 8.7 4.5 9.2 4.5s2.9-2.6 5.4-5.8c2.5-3.1 6.2-7.6 8.3-9.9l3.9-4.2-3.8-3.3c-15.9-13.7-37.8-35.1-48.6-47.5-4.9-5.7-7.9-13.4-6.1-16.1.9-1.5 32.9-13 36.3-13.1.9 0 3.2 3 5.5 7.1zM338 283.6c5.1 6.3 9 11.7 8.8 11.9-.8.8-19.9 3.6-20.7 3-.5-.2-.3-3.3.5-6.7.7-3.5 1.3-9.3 1.4-13.1 0-3.7.2-6.7.4-6.7.3 0 4.6 5.2 9.6 11.6z"/><path d="M281 143.1c0 1.3 5.8 11.7 8.8 15.6 2.2 2.9 3 3.3 7.3 3.3 2.6 0 6-.5 7.5-1l2.8-1.1-4.5-4.3c-4.4-4.3-21.9-14.3-21.9-12.5zM352.3 252c3.6 6.6 3.7 6.7 13.2 4.6l6-1.2-6-1.8c-3.3-1-8.1-3.1-10.6-4.7s-4.9-2.9-5.2-2.9c-.4 0 .8 2.7 2.6 6z"/></g></svg>